<svg xmlns="http://www.w3.org/2000/svg" xmlns:xlink="http://www.w3.org/1999/xlink" version="1.1" width="1000" height="1000" viewBox="0 0 1000 1000" xml:space="preserve">
<desc>Created with Fabric.js 3.5.0</desc>
<defs>
</defs>
<rect x="0" y="0" width="100%" height="100%" fill="rgba(255,255,255,0)"/>
<g transform="matrix(-1.922 0 0 1.922 500.0118 500.0117)" id="247008">
<path style="stroke: none; stroke-width: 1; stroke-dasharray: none; stroke-linecap: butt; stroke-dashoffset: 0; stroke-linejoin: miter; stroke-miterlimit: 4; is-custom-font: none; font-file-url: none; fill: rgb(255,255,255); fill-rule: nonzero; opacity: 1;" vector-effect="non-scaling-stroke" transform=" translate(-254.656, -256.7778)" d="M 345.594 20.28 c -11.443 0.087 -23.37 1.194 -36.094 3.845 c 33.485 7.004 54.532 21.844 65.844 39.22 c -15.476 -2.647 -30.64 -4.472 -45.47 -5.532 L 311 40.374 l -19.28 16.438 c -7.537 0.167 -14.98 0.55 -22.314 1.156 L 239.97 41.78 l -14.907 22.814 c -8.1 1.775 -16.05 3.846 -23.844 6.22 l -29.47 -14.97 l -11.313 30.75 c -8.783 4.197 -17.31 8.868 -25.593 13.937 l -32.688 -5.31 l -0.47 29.03 c -6.313 5.248 -12.44 10.808 -18.374 16.656 H 48 l 3.563 36.656 c -4.38 5.908 -8.603 12.045 -12.688 18.375 L 18.47 192.25 v 39.5 c -0.012 0.02 -0.022 0.042 -0.032 0.063 V 493.28 h 18.5 c 23.523 -92.965 94.565 -130.4 168.968 -85.25 c 42.127 25.566 93.783 62.296 149.063 41.158 c -0.9 7.955 -3.276 15.623 -6.908 22.562 l 95.344 19.188 c 2.99 -7.75 5.584 -15.712 7.625 -23.563 c -3.557 2.29 -10.352 4.79 -19.78 3.313 c -41.302 -6.47 -33.15 -54.034 -0.53 -58.407 c 10.915 -1.456 21.15 3.22 27.56 11.25 l 18.283 -38.874 c -68.1 6.078 -129.61 -30.834 -197.47 -16.687 c 35.468 7.415 56.983 23.64 67.75 42.342 c -7.332 0.564 -14.425 0.598 -21.28 0.157 l -10.813 -10.25 l -13.625 6.436 c -5.98 -1.52 -11.737 -3.448 -17.313 -5.75 l -7.718 -15.47 l -10.906 5.97 c -7.152 -4.38 -13.924 -9.414 -20.344 -15.062 l -1.813 -26.75 l -19.436 5.03 c -7.508 -7.63 -15.15 -13.68 -22.875 -18.343 l -1.282 -19.75 l -23.875 9.408 c -11.712 -2.7 -23.455 -2.622 -35.063 -0.25 c 44.223 -90.392 134.06 -92.4 180.813 -64.563 c -5.227 5.68 -11.388 10.355 -18.125 13.78 l 66.562 70.908 c 6.928 -4.58 13.63 -9.564 19.844 -14.782 c -4.228 -0.204 -14.15 -5.01 -17.47 -8.06 c -34.53 -31.74 7.1 -63.854 32.876 -48.626 c 9.484 5.603 15.366 14.898 15.938 25.156 l 34.75 -23.875 c -59.015 -34.522 -85.098 -97.445 -148.594 -125.25 c 23.092 24.968 31.707 49.115 30.97 69.75 c -8.93 -6.752 -18.606 -12.1 -28.845 -16.188 l -13.845 -21.25 l -18.188 12.75 c -5.18 -0.755 -10.455 -1.246 -15.78 -1.5 l -19.094 -18.093 l -15.25 19.687 c -7.918 1.068 -15.884 2.592 -23.844 4.564 l -15.75 -13 l -9.75 20.812 c -6.988 2.552 -13.936 5.42 -20.782 8.594 l -23.594 -8.28 l -8.625 25.874 c -12.263 7.768 -23.966 16.49 -34.876 26.062 C 124.307 122.443 296.518 88.99 384.938 108.562 c -1.12 6.798 -3.333 13.35 -6.47 19.344 l 95.344 19.188 c 2.99 -7.75 5.585 -15.71 7.625 -23.563 c -3.558 2.29 -7.502 5.33 -11.968 4.72 c -46.308 -6.31 -43.81 -54.725 -8.345 -59.813 c 10.903 -1.57 21.15 3.193 27.563 11.22 c 1 -10.184 1.808 -35.654 2.187 -45.907 c -55.332 4.938 -95.695 -13.84 -145.28 -13.47 z" stroke-linecap="round"/>
</g>
</svg>